<svg width="50" height="51" viewBox="0 0 50 51" fill="none" xmlns="http://www.w3.org/2000/svg">
<path d="M24.4845 0.271621C24.1895 0.400522 23.9477 0.62317 23.8083 0.896596L23.6895 1.13096V4.73629C23.6895 7.38853 23.7017 8.36506 23.7386 8.43146C23.7632 8.47833 23.8001 8.54474 23.8206 8.57599C23.837 8.60723 23.8657 8.66192 23.8821 8.69317C23.9395 8.81035 24.2632 9.07206 24.4354 9.13846C24.5337 9.17752 24.6444 9.2244 24.6813 9.24393C24.7796 9.2908 25.3288 9.2869 25.3288 9.24002C25.3288 9.21659 25.3616 9.20096 25.4067 9.20096C25.5173 9.20096 25.8247 9.02909 25.9682 8.88066C26.1444 8.70489 26.3124 8.40412 26.3124 8.2635C26.3124 8.201 26.3247 8.14241 26.3452 8.1346C26.3616 8.12288 26.3657 6.537 26.3534 4.60348L26.3329 1.09581L26.21 0.884878C26.0337 0.580202 25.7878 0.365367 25.4764 0.240372C25.2345 0.14272 24.7427 0.16225 24.4845 0.271621Z" fill="white"/>
<path d="M10.0618 4.73248C9.76668 4.8067 9.36504 5.09575 9.24209 5.3184C9.19701 5.40043 9.14783 5.47855 9.13553 5.49027C9.04947 5.55667 8.99209 6.11915 9.05766 6.2832C9.17242 6.56835 9.23799 6.69334 9.38144 6.87693C9.4675 6.9824 9.58635 7.14255 9.65193 7.22848C9.7175 7.31441 9.78718 7.38863 9.80357 7.39644C9.81996 7.40425 9.83636 7.4316 9.83636 7.45894C9.83636 7.48628 9.86914 7.54487 9.91013 7.59175C10.0864 7.79096 10.1232 7.83393 10.1929 7.93939C10.2626 8.04095 10.5946 8.47843 10.7093 8.61514C10.738 8.64639 10.8773 8.82998 11.0249 9.02529C11.1683 9.21668 11.3036 9.38074 11.32 9.38855C11.3364 9.39636 11.3528 9.42761 11.3528 9.45496C11.3528 9.4823 11.3651 9.51355 11.3855 9.52136C11.4019 9.52527 11.488 9.63073 11.5782 9.74791C11.6683 9.8651 11.7544 9.96665 11.7708 9.97447C11.7913 9.98228 11.8036 10.0057 11.8036 10.0252C11.8036 10.0643 12.2421 10.6502 12.5823 11.0643C12.6724 11.1736 12.7462 11.283 12.7462 11.3025C12.7462 11.3221 12.7749 11.3611 12.8118 11.3924C12.8487 11.4197 12.9962 11.6072 13.1438 11.8064C13.447 12.2244 13.7667 12.4783 14.0208 12.5095C14.111 12.5212 14.1929 12.5486 14.2052 12.5642C14.2339 12.6111 14.5782 12.6111 14.6069 12.5642C14.6192 12.5486 14.7011 12.5212 14.7831 12.5134C14.947 12.49 15.2421 12.322 15.3979 12.1619C15.4471 12.115 15.5454 11.9666 15.6192 11.8377C15.7339 11.6267 15.7503 11.5682 15.7503 11.2713C15.7503 10.8768 15.7053 10.783 15.1889 10.119C15.0044 9.88072 14.8159 9.63464 14.7749 9.57214C14.7339 9.50574 14.6725 9.43152 14.6438 9.40027C14.5905 9.34949 14.3364 9.01357 14.1438 8.73623C14.0905 8.65811 14.0331 8.5878 14.0208 8.57608C14.0044 8.56437 13.9225 8.4589 13.8323 8.34172C13.7421 8.22453 13.6356 8.09173 13.5987 8.05267C13.5577 8.0097 13.5167 7.9433 13.5003 7.90423C13.488 7.86517 13.4593 7.83393 13.4388 7.83393C13.4183 7.83393 13.402 7.8183 13.402 7.79486C13.402 7.77533 13.3733 7.72455 13.3405 7.6894C13.3077 7.65034 13.1397 7.4355 12.9675 7.20895C12.7913 6.9824 12.6397 6.791 12.6274 6.77928C12.6151 6.76756 12.5864 6.73241 12.5618 6.69334C12.5085 6.61132 12.0864 6.02931 12.0413 5.97853C12.0208 5.959 11.8774 5.77151 11.7175 5.56839C11.1929 4.89654 10.9798 4.75201 10.4757 4.72858C10.2913 4.72076 10.1069 4.72076 10.0618 4.73248Z" fill="white"/>
<path d="M39.2126 4.73601C39.147 4.74382 39.0978 4.77116 39.0978 4.79069C39.0978 4.81022 39.0773 4.82585 39.0527 4.82585C38.9339 4.82585 38.6019 5.14615 38.2986 5.54847C38.2536 5.61097 38.1675 5.72034 38.106 5.79846C38.0445 5.87659 37.979 5.95471 37.9626 5.97815C37.9421 5.99768 37.8765 6.09533 37.8068 6.19298C37.7413 6.29063 37.6716 6.37266 37.6552 6.38047C37.6347 6.38829 37.6224 6.41172 37.6224 6.43516C37.6224 6.4586 37.5773 6.52891 37.5199 6.59921C37.4626 6.66562 37.4011 6.73983 37.3806 6.76327C37.3601 6.78671 37.274 6.89998 37.188 7.01717C37.1019 7.13435 37.0199 7.23591 37.0076 7.24763C36.9953 7.25935 36.9134 7.36481 36.8232 7.48199C36.733 7.59918 36.647 7.70073 36.6306 7.70855C36.6101 7.71636 36.5978 7.74761 36.5978 7.77886C36.5978 7.81011 36.5814 7.83354 36.5609 7.83354C36.5404 7.83354 36.5117 7.86479 36.4994 7.89995C36.4871 7.93901 36.4216 8.03275 36.3519 8.10697C36.2863 8.18118 36.2289 8.2554 36.2289 8.27102C36.2289 8.28274 36.1511 8.38821 36.0527 8.50539C35.8724 8.72023 35.8437 8.75929 35.5814 9.12255C35.4994 9.23974 35.4093 9.36083 35.3806 9.39598C35.0568 9.78268 34.5076 10.5209 34.4011 10.7162C34.2781 10.935 34.2617 11.0014 34.2617 11.2553C34.2617 11.4154 34.2781 11.5756 34.2986 11.6146C34.3191 11.6498 34.3601 11.7318 34.3888 11.7982C34.4666 11.9545 34.4953 11.9935 34.7125 12.1967C35.0076 12.474 35.1798 12.5287 35.6716 12.513C36.0814 12.5013 36.0896 12.5013 36.3355 12.3373C36.4994 12.2318 36.6593 12.0795 36.7863 11.9076C36.8929 11.7631 36.9994 11.6342 37.0158 11.6303C37.0322 11.6225 37.0486 11.5951 37.0486 11.5678C37.0486 11.5404 37.0937 11.4779 37.1511 11.4272C37.2085 11.3764 37.2535 11.3139 37.2535 11.2826C37.2535 11.2553 37.2658 11.2318 37.2863 11.2318C37.3027 11.2279 37.3806 11.1381 37.4585 11.0287C37.5363 10.9194 37.774 10.6147 37.9831 10.3452C38.188 10.0756 38.3601 9.84909 38.3601 9.84128C38.3601 9.81784 38.5691 9.54832 38.6101 9.51316C38.6224 9.50145 38.6921 9.41161 38.7618 9.31005C38.8355 9.21239 38.9175 9.10693 38.9462 9.07568C38.9749 9.04834 39.0404 8.9624 39.0855 8.88819C39.1347 8.81007 39.2085 8.70851 39.2536 8.66554C39.2945 8.61867 39.3601 8.54055 39.397 8.48977C39.4339 8.43899 39.6183 8.20071 39.8027 7.95854C39.9913 7.71636 40.2495 7.37262 40.3806 7.19294C40.5118 7.01326 40.6511 6.83358 40.688 6.79061C40.7249 6.75155 40.7905 6.64999 40.8355 6.56406C40.8765 6.47813 40.9257 6.37657 40.9462 6.34141C40.9995 6.24376 40.9913 5.74769 40.938 5.61878C40.8109 5.32583 40.77 5.25942 40.647 5.13443C40.5732 5.06021 40.4216 4.93912 40.3068 4.86491C40.1101 4.73601 40.0814 4.72819 39.7126 4.72429C39.4995 4.72038 39.2741 4.72429 39.2126 4.73601Z" fill="white"/>
<path d="M24.0165 12.4919C23.9837 12.5076 23.7214 12.5349 23.4345 12.5505C22.9018 12.574 22.5411 12.6247 22.3977 12.6872C22.3526 12.7068 22.1886 12.7458 22.0288 12.7693C21.5247 12.8435 21.4755 12.8552 21.4509 12.8904C21.4386 12.9099 21.3935 12.9255 21.3526 12.9255C21.2624 12.9255 20.4632 13.1716 20.2583 13.2614C20.1886 13.2888 20.1108 13.3161 20.0862 13.3161C20.0616 13.3161 20.0083 13.3317 19.9673 13.3513C19.9304 13.3708 19.8239 13.4177 19.7337 13.4528C19.0411 13.7341 18.3239 14.0778 18.2255 14.1716C18.2009 14.195 18.1558 14.2145 18.1271 14.2145C18.0943 14.2145 18.037 14.2458 17.9919 14.2848C17.9509 14.3239 17.8198 14.402 17.7091 14.4606C17.5943 14.5192 17.4181 14.6247 17.3197 14.6911C17.2214 14.7614 17.0124 14.9059 16.8566 15.0153C16.705 15.1207 16.5574 15.2262 16.5329 15.2496C16.5042 15.2692 16.3853 15.359 16.2665 15.4449C16.1476 15.5309 15.7706 15.8629 15.4304 16.1871C14.5779 16.9918 14.0615 17.5738 13.6312 18.2183C13.5451 18.3433 13.4509 18.4722 13.4181 18.4995C13.3853 18.5308 13.3607 18.5815 13.3607 18.6128C13.3607 18.644 13.3443 18.6675 13.3197 18.6675C13.2992 18.6675 13.2787 18.687 13.2787 18.7104C13.2787 18.7339 13.2255 18.8237 13.164 18.9136C13.0984 19.0034 12.9837 19.1987 12.9058 19.351C12.8279 19.4995 12.7582 19.6323 12.7459 19.644C12.6968 19.6909 12.4181 20.2651 12.4181 20.3237C12.4181 20.3588 12.4017 20.3862 12.3771 20.3862C12.3566 20.3862 12.3361 20.4213 12.3361 20.4604C12.3361 20.5033 12.3156 20.5502 12.2951 20.5619C12.2705 20.5737 12.2541 20.6127 12.2541 20.6401C12.2541 20.6713 12.2091 20.7924 12.1517 20.9096C12.0943 21.0268 12.0492 21.1478 12.0492 21.183C12.0492 21.2142 12.0328 21.2533 12.0082 21.265C11.9877 21.2767 11.9672 21.3314 11.9672 21.3822C11.9672 21.433 11.9509 21.4838 11.9304 21.4955C11.9099 21.5072 11.8812 21.597 11.8689 21.6908C11.8525 21.7884 11.8115 21.9213 11.7746 21.9877C11.7418 22.0541 11.705 22.183 11.6927 22.2728C11.6804 22.3626 11.6517 22.4564 11.6312 22.4837C11.6107 22.5111 11.6025 22.5501 11.6189 22.5736C11.6312 22.597 11.6148 22.6673 11.582 22.7337C11.5451 22.804 11.5041 22.9954 11.4918 23.1673C11.4754 23.3353 11.4468 23.4837 11.4304 23.4954C11.4099 23.5071 11.3935 23.6087 11.3935 23.722C11.3935 23.8313 11.3689 23.9485 11.3443 23.972C11.3033 24.011 11.291 24.386 11.291 25.5813C11.291 26.7765 11.3033 27.1515 11.3443 27.1867C11.3689 27.214 11.3935 27.3312 11.3935 27.4406C11.3935 27.5538 11.4099 27.6554 11.4304 27.6671C11.4468 27.6788 11.4754 27.8273 11.4918 27.9952C11.5041 28.1671 11.5451 28.3585 11.582 28.4288C11.6148 28.4952 11.6312 28.5655 11.6189 28.589C11.6025 28.6124 11.6107 28.6515 11.6312 28.6788C11.6517 28.7061 11.6804 28.7999 11.6927 28.8897C11.705 28.9796 11.7418 29.1085 11.7746 29.1749C11.8115 29.2413 11.8525 29.3741 11.8689 29.4717C11.8812 29.5655 11.9099 29.6553 11.9304 29.667C11.9509 29.6788 11.9672 29.7295 11.9672 29.7803C11.9672 29.8311 11.9877 29.8858 12.0082 29.8975C12.0328 29.9092 12.0492 29.9483 12.0492 29.9795C12.0492 30.0147 12.0943 30.1358 12.1517 30.253C12.2091 30.3701 12.2541 30.4912 12.2541 30.5225C12.2541 30.5498 12.2746 30.5889 12.2951 30.6006C12.3197 30.6123 12.3361 30.6592 12.3361 30.7022C12.3361 30.7412 12.3566 30.7764 12.3771 30.7764C12.4017 30.7764 12.4181 30.8076 12.4181 30.8428C12.4181 30.9092 12.7009 31.4834 12.75 31.5185C12.7623 31.5303 12.791 31.581 12.8074 31.6357C12.8238 31.6904 12.873 31.7802 12.914 31.8388C12.9591 31.8935 12.9918 31.9521 12.9918 31.9716C12.9918 31.9873 13.0574 32.0927 13.1353 32.206C13.2132 32.3193 13.2787 32.4287 13.2787 32.4521C13.2787 32.4755 13.2992 32.4951 13.3197 32.4951C13.3443 32.4951 13.3607 32.5185 13.3607 32.5497C13.3607 32.581 13.3853 32.6318 13.4181 32.663C13.4509 32.6904 13.5451 32.8193 13.6312 32.9443C13.7582 33.1357 13.8976 33.3271 14.0902 33.5692C14.2132 33.7255 14.455 34.0067 14.496 34.038C14.5205 34.0575 14.6107 34.1552 14.6927 34.2528C15.1886 34.8348 16.0615 35.5926 16.9263 36.2019C17.0493 36.2879 17.1722 36.3738 17.1927 36.3894C17.2788 36.4598 17.7009 36.7136 17.7255 36.7136C17.746 36.7136 17.9878 36.866 18.0329 36.909C18.0452 36.9207 18.1435 36.9714 18.2501 37.0261C18.6353 37.2136 18.6681 37.2332 18.6927 37.2683C18.705 37.2917 18.7296 37.3035 18.746 37.2996C18.7583 37.2996 18.8976 37.3503 19.0493 37.4167C19.2009 37.4831 19.4058 37.5769 19.5083 37.6199C19.6107 37.6628 19.7624 37.7331 19.8485 37.7722C19.9304 37.8113 20.0657 37.8542 20.1435 37.8699C20.2214 37.8816 20.2993 37.9089 20.3116 37.9284C20.3239 37.948 20.369 37.9636 20.414 37.9636C20.455 37.9636 20.4919 37.9792 20.4919 38.0027C20.4919 38.0222 20.5247 38.0417 20.5657 38.0417C20.6067 38.0417 20.7747 38.0847 20.9345 38.1394C21.0944 38.1941 21.2747 38.237 21.3321 38.237C21.3894 38.237 21.4345 38.2526 21.4345 38.2722C21.4345 38.2917 21.5042 38.3151 21.5903 38.3308C22.0616 38.3972 22.3649 38.4597 22.4386 38.4987C22.5329 38.5495 23.287 38.6276 23.6723 38.6276C23.8157 38.6276 23.9386 38.6433 23.9509 38.6628C23.9878 38.7136 25.1436 38.7448 25.6559 38.7058C25.9141 38.6862 26.3567 38.6511 26.6395 38.6315C27.2215 38.5886 27.6969 38.5183 27.7256 38.4714C27.7379 38.4558 27.869 38.4284 28.0206 38.4128C28.1682 38.3972 28.3321 38.3698 28.3772 38.3542C28.4264 38.3386 28.537 38.3034 28.6272 38.2839C28.9305 38.2097 29.7748 37.948 29.8772 37.8972C29.9346 37.8699 30.0002 37.8464 30.0289 37.8464C30.0575 37.8464 30.1395 37.8152 30.2133 37.7761C30.2871 37.737 30.4264 37.6824 30.5248 37.6511C30.619 37.6238 30.6969 37.5847 30.6969 37.5652C30.6969 37.5496 30.7215 37.5339 30.7502 37.5339C30.7748 37.5339 30.91 37.4792 31.0453 37.4167C31.1805 37.3542 31.3035 37.2996 31.3239 37.2996C31.3403 37.2996 31.492 37.2214 31.6559 37.1238C31.824 37.0261 31.9715 36.948 31.9879 36.948C32.0002 36.948 32.2379 36.8074 32.5084 36.6355C32.783 36.4637 33.0248 36.323 33.0412 36.323C33.0576 36.323 33.074 36.3074 33.074 36.284C33.074 36.2644 33.1231 36.2215 33.1887 36.1902C33.2502 36.159 33.3486 36.0926 33.4059 36.0418C33.4674 35.991 33.5781 35.9051 33.6518 35.8465C33.7297 35.7879 33.8445 35.702 33.91 35.6512C34.2379 35.4012 34.9715 34.7176 35.3281 34.3309C35.451 34.1981 35.574 34.0692 35.5945 34.0419C35.6887 33.9481 36.0535 33.5067 36.1887 33.3271C36.2666 33.2255 36.3486 33.1239 36.365 33.1005C36.3978 33.0575 36.6887 32.6357 36.8978 32.3193C36.9674 32.2099 37.1027 31.9834 37.1928 31.8115C37.2871 31.6396 37.3814 31.4639 37.406 31.4209C37.4346 31.3779 37.4797 31.2842 37.5084 31.2139C37.5371 31.1475 37.574 31.0889 37.5904 31.0889C37.6068 31.0889 37.6314 31.0264 37.6478 30.9522C37.6601 30.8779 37.6887 30.8037 37.7092 30.792C37.7297 30.7803 37.7461 30.7373 37.7461 30.6944C37.7461 30.6553 37.7666 30.6201 37.7871 30.6201C37.8117 30.6201 37.8281 30.5928 37.8281 30.5615C37.8281 30.5303 37.8445 30.4717 37.865 30.4326C37.951 30.2803 38.033 30.0772 38.033 30.0225C38.033 29.9873 38.0535 29.9483 38.074 29.9366C38.0986 29.9248 38.115 29.8702 38.115 29.8194C38.115 29.7686 38.1314 29.7178 38.1519 29.7061C38.1724 29.6944 38.201 29.6006 38.2174 29.4991C38.2338 29.4014 38.2707 29.2803 38.2994 29.2374C38.3322 29.1905 38.3855 29.0147 38.4183 28.8429C38.451 28.671 38.5084 28.4327 38.5412 28.3155C38.5781 28.1984 38.6068 28.0304 38.6068 27.9445C38.6068 27.8546 38.6232 27.7687 38.6437 27.7452C38.6888 27.7023 38.7133 27.5109 38.7994 26.4328C38.8609 25.6399 38.8609 25.5227 38.7994 24.7336C38.7133 23.6517 38.6888 23.4603 38.6437 23.4173C38.6232 23.3939 38.6068 23.3079 38.6068 23.2181C38.6068 23.1321 38.5781 22.9642 38.5412 22.847C38.5084 22.7298 38.451 22.4915 38.4183 22.3197C38.3814 22.1478 38.3322 21.972 38.2994 21.9252C38.2707 21.8822 38.2338 21.7611 38.2174 21.6635C38.201 21.5619 38.1724 21.4681 38.1519 21.4564C38.1314 21.4447 38.115 21.3939 38.115 21.3432C38.115 21.2924 38.0986 21.2377 38.074 21.226C38.0535 21.2142 38.033 21.1752 38.033 21.1439C38.033 21.1088 37.9879 20.9877 37.9306 20.8705C37.8732 20.7533 37.8281 20.6322 37.8281 20.601C37.8281 20.5697 37.8117 20.5424 37.7871 20.5424C37.7666 20.5424 37.7461 20.4994 37.7461 20.4447C37.7461 20.3901 37.7297 20.3471 37.7051 20.3471C37.6846 20.3471 37.6642 20.3198 37.6642 20.2846C37.6642 20.2533 37.6191 20.1479 37.5617 20.0502C37.5043 19.9526 37.4592 19.851 37.4592 19.8198C37.4592 19.7924 37.4469 19.7612 37.4305 19.7534C37.4101 19.7456 37.3158 19.5854 37.2133 19.3901C37.1109 19.1987 36.9592 18.9331 36.8691 18.8042C36.4715 18.2144 36.3937 18.0972 36.365 18.062C36.3445 18.0386 36.2584 17.9253 36.1682 17.8081C36.0781 17.6909 35.9879 17.5738 35.9633 17.5503C35.9428 17.5269 35.8691 17.441 35.7994 17.3589C35.7338 17.2769 35.66 17.191 35.6355 17.1675C35.615 17.1441 35.4756 16.9957 35.3281 16.8355C34.9018 16.3707 34.4305 15.9332 33.9141 15.5231C33.7789 15.4176 33.6477 15.3121 33.6231 15.2887C33.5986 15.2692 33.5125 15.2067 33.4305 15.152C33.3486 15.0973 33.2789 15.0426 33.2789 15.0231C33.2789 15.0075 33.2502 14.9957 33.2174 14.9957C33.1846 14.9957 33.1354 14.9606 33.1067 14.9176C33.0781 14.8747 33.0412 14.8395 33.0248 14.8395C33.0043 14.8395 32.8772 14.7653 32.7338 14.6715C32.5944 14.5778 32.3895 14.4528 32.2748 14.3903C32.1641 14.3317 32.0617 14.2692 32.0494 14.2536C32.0371 14.238 31.9879 14.2145 31.9387 14.1989C31.8854 14.1833 31.8444 14.1559 31.8444 14.1403C31.8444 14.1247 31.742 14.07 31.619 14.0192C31.4961 13.9684 31.3936 13.9098 31.3936 13.8942C31.3936 13.8786 31.3731 13.863 31.3485 13.863C31.3239 13.863 31.1805 13.8083 31.0289 13.7419C30.8813 13.6755 30.6764 13.5856 30.5739 13.5427C30.4715 13.4997 30.3198 13.4294 30.2338 13.3903C30.1518 13.3513 30.0166 13.3083 29.9387 13.2927C29.8608 13.281 29.783 13.2536 29.7707 13.2341C29.7584 13.2146 29.7133 13.1989 29.6682 13.1989C29.6272 13.1989 29.5903 13.1833 29.5903 13.1677C29.5903 13.1521 29.4797 13.113 29.3444 13.0857C29.2092 13.0544 29.0862 13.0193 29.0739 12.9997C29.0657 12.9802 28.9633 12.9568 28.8526 12.9411C28.7379 12.9255 28.6477 12.9021 28.6477 12.8864C28.6477 12.8708 28.578 12.8474 28.4961 12.8318C28.0903 12.7732 27.7133 12.7029 27.6149 12.6599C27.5575 12.6365 27.2788 12.5974 27.0001 12.5779C26.7215 12.5544 26.3936 12.5232 26.2706 12.5115C25.8895 12.4724 24.0821 12.4568 24.0165 12.4919Z" fill="white"/>
<path d="M48.3609 16.5873C48.283 16.6108 48.1559 16.6381 48.0863 16.6498C48.0125 16.6616 47.951 16.685 47.951 16.7045C47.951 16.7241 47.9059 16.7397 47.8527 16.7397C47.7953 16.7397 47.742 16.7553 47.7297 16.7748C47.7174 16.7944 47.6354 16.8217 47.5535 16.8373C47.4674 16.8491 47.3608 16.8842 47.3158 16.9115C47.2707 16.9389 47.16 16.974 47.0699 16.9897C46.9018 17.0209 46.5985 17.1108 46.4551 17.1694C46.41 17.1889 46.2994 17.224 46.2092 17.2514C46.119 17.2748 45.9756 17.3217 45.8895 17.349C45.8076 17.3803 45.6887 17.4037 45.6354 17.4037C45.578 17.4037 45.533 17.4193 45.533 17.435C45.533 17.4506 45.4469 17.4857 45.3403 17.5131C45.2297 17.5443 45.1108 17.5834 45.0739 17.6029C45.033 17.6225 44.9633 17.6381 44.9223 17.6381C44.8772 17.6381 44.8321 17.6537 44.8198 17.6732C44.8035 17.6928 44.7174 17.7201 44.6231 17.7357C44.5289 17.7514 44.4182 17.7787 44.3772 17.7982C44.3362 17.8178 44.2666 17.849 44.2215 17.8724C44.1764 17.892 44.1108 17.9115 44.078 17.9115C44.0452 17.9115 43.9838 17.9271 43.9428 17.9467C43.9059 17.9662 43.7625 18.0131 43.6272 18.0482C43.492 18.0873 43.3444 18.1303 43.2993 18.1498C43.0944 18.2279 42.8157 18.3021 42.7256 18.3021C42.6682 18.3021 42.6231 18.3138 42.6231 18.3295C42.6231 18.349 42.4797 18.4037 42.3034 18.4545C42.1313 18.5052 41.9715 18.5599 41.9469 18.5755C41.9264 18.5912 41.8362 18.6146 41.7502 18.6302C41.5862 18.6576 41.5411 18.6888 41.2419 18.9427C41.0616 19.099 40.9018 19.3607 40.9018 19.5091C40.9018 19.5521 40.8854 19.5989 40.8608 19.6107C40.8075 19.6419 40.8075 20.0013 40.8567 20.0911C40.8813 20.1263 40.91 20.2239 40.9223 20.302C40.9346 20.3841 40.9633 20.4505 40.9838 20.4505C41.0083 20.4505 41.0247 20.4739 41.0247 20.5052C41.0247 20.5716 41.4346 20.9583 41.5083 20.9583C41.5329 20.9583 41.5575 20.9739 41.5575 20.9895C41.5575 21.0989 42.492 21.177 42.5944 21.0794C42.619 21.0559 42.6805 21.0364 42.7297 21.0364C42.7829 21.0364 42.8362 21.0169 42.8485 20.9973C42.8608 20.9739 42.9182 20.9583 42.9756 20.9583C43.0288 20.9583 43.0739 20.9387 43.0739 20.9192C43.0739 20.8958 43.1067 20.8801 43.1436 20.8801C43.1846 20.8801 43.3526 20.8372 43.5248 20.7864C43.6928 20.7317 44.0534 20.6262 44.3239 20.5442C44.5944 20.4622 44.8362 20.3841 44.8567 20.3684C44.8813 20.3528 44.9838 20.3294 45.0944 20.3138C45.201 20.2981 45.2871 20.2747 45.2871 20.2591C45.2871 20.2435 45.3731 20.2122 45.4838 20.181C45.5903 20.1536 45.7133 20.1145 45.7584 20.0989C45.8035 20.0794 46.0084 20.0169 46.2092 19.9583C46.4141 19.8997 46.5944 19.8372 46.6149 19.8177C46.6395 19.8021 46.6969 19.7864 46.7461 19.7864C46.7994 19.7864 46.8485 19.7708 46.8608 19.7513C46.8772 19.7318 46.9551 19.7044 47.0412 19.6888C47.2215 19.6614 47.4838 19.5794 47.5248 19.5404C47.5412 19.5247 47.5986 19.513 47.6477 19.513C47.701 19.513 47.7502 19.4974 47.7625 19.4779C47.7748 19.4622 47.8649 19.4349 47.9592 19.4193C48.0535 19.4036 48.1518 19.3763 48.1764 19.3568C48.201 19.3372 48.3281 19.2943 48.4592 19.263C48.5904 19.2279 48.7502 19.1771 48.8199 19.1458C48.8854 19.1107 49.0084 19.0755 49.0945 19.0599C49.283 19.0247 49.4346 18.9271 49.6846 18.6771C49.9633 18.3998 50.0002 18.2904 49.9961 17.7982C49.9961 17.3647 49.9961 17.3725 49.7584 17.0483C49.6682 16.9233 49.41 16.7319 49.1928 16.6264C49.0658 16.5639 48.533 16.5405 48.3609 16.5873Z" fill="white"/>
<path d="M0.922138 16.634C0.856564 16.6574 0.790989 16.6887 0.778694 16.7004C0.766399 16.7121 0.704923 16.7472 0.639349 16.7785C0.500004 16.8488 0.20492 17.1535 0.12705 17.3097C0.0983614 17.3722 0.0573775 17.4543 0.0368855 17.4894C0.0163936 17.5285 0 17.6964 0 17.8683C0 18.1378 0.0163936 18.2042 0.12705 18.4034C0.196723 18.5323 0.290986 18.6769 0.340166 18.7276C0.475413 18.8644 0.750005 19.0362 0.885252 19.0675C0.950827 19.0831 1.0246 19.1065 1.04919 19.1261C1.06968 19.1456 1.19673 19.1847 1.32788 19.2159C1.45903 19.2511 1.61886 19.3018 1.68444 19.3331C1.75411 19.3643 1.88936 19.4034 1.98772 19.419C2.09018 19.4307 2.17215 19.4581 2.17215 19.4776C2.17215 19.4971 2.21313 19.5128 2.26641 19.5128C2.31969 19.5128 2.37707 19.5284 2.39756 19.544C2.42215 19.5635 2.51231 19.5987 2.60248 19.6221C3.15986 19.7706 3.26232 19.8018 3.29511 19.8331C3.3197 19.8487 3.37707 19.8643 3.43035 19.8643C3.48363 19.8643 3.52462 19.8799 3.52462 19.9034C3.52462 19.9229 3.5615 19.9424 3.60658 19.9424C3.69675 19.9424 4.52052 20.1924 4.63938 20.2549C4.67626 20.2745 4.78282 20.3057 4.87708 20.3174C4.96725 20.333 5.05332 20.3604 5.06561 20.376C5.07791 20.3955 5.12299 20.4112 5.16807 20.4112C5.20905 20.4112 5.27873 20.4268 5.31971 20.4502C5.42627 20.5088 6.01644 20.6846 6.1025 20.6846C6.14349 20.6846 6.18857 20.6963 6.20496 20.7119C6.22136 20.7276 6.25824 20.7432 6.28283 20.7432C6.31152 20.7471 6.3771 20.7666 6.43447 20.7901C6.49185 20.8135 6.64759 20.8643 6.78284 20.9033C6.91808 20.9424 7.05743 20.9854 7.09022 21.001C7.44678 21.1494 7.95498 21.1924 8.29104 21.0986C8.41809 21.0635 8.52465 21.0166 8.52465 20.9971C8.52465 20.9736 8.54924 20.958 8.58203 20.958C8.6476 20.958 9.05744 20.544 9.05744 20.4776C9.06154 20.4502 9.09433 20.3604 9.13941 20.2745C9.23367 20.0909 9.24597 19.7003 9.164 19.5479C9.13531 19.4932 9.09843 19.4034 9.08613 19.3487C9.04515 19.2003 8.68449 18.8448 8.47547 18.7472C8.38121 18.7003 8.19678 18.6339 8.07383 18.5987C7.95088 18.5636 7.81153 18.5167 7.76645 18.5011C7.72137 18.4816 7.60251 18.4425 7.50005 18.4152C7.3976 18.3878 7.29923 18.3527 7.27464 18.337C7.25415 18.3214 7.16809 18.298 7.09022 18.2863C7.01235 18.2706 6.90989 18.2433 6.8648 18.2238C6.73366 18.1691 6.13529 17.9894 6.07791 17.9894C6.04922 17.9894 5.98775 17.9699 5.94267 17.9503C5.89758 17.9269 5.82381 17.8917 5.77873 17.8722C5.73365 17.8488 5.65988 17.8331 5.6148 17.8331C5.56971 17.8331 5.53283 17.8175 5.53283 17.798C5.53283 17.7785 5.44266 17.755 5.32791 17.7394C5.21725 17.7238 5.11479 17.6964 5.1025 17.6769C5.0902 17.6535 5.04102 17.6378 4.99594 17.6378C4.95495 17.6378 4.88528 17.6222 4.8443 17.6027C4.80741 17.5832 4.69266 17.5441 4.5902 17.5167C4.48774 17.4894 4.38938 17.4543 4.36479 17.4386C4.34429 17.423 4.25413 17.3996 4.16806 17.3839C4.0861 17.3683 4.00413 17.341 3.99183 17.3214C3.97954 17.3019 3.92626 17.2863 3.87708 17.2863C3.79511 17.2863 3.53281 17.2043 3.25822 17.0871C3.21314 17.0675 3.09019 17.0363 2.98363 17.0129C2.75822 16.966 2.22133 16.798 2.18444 16.7629C2.16805 16.7512 2.11477 16.7394 2.06149 16.7394C2.01231 16.7394 1.96723 16.7238 1.96723 16.7043C1.96723 16.6183 1.11476 16.5637 0.922138 16.634Z" fill="white"/>
<path d="M41.9054 29.2158C41.8849 29.2237 41.7866 29.251 41.6923 29.2783C41.5939 29.3057 41.5161 29.3447 41.5161 29.3643C41.5161 29.3799 41.4956 29.3955 41.4669 29.3955C41.3931 29.3955 41.0529 29.751 40.971 29.9111C40.9341 29.9893 40.9013 30.0947 40.9013 30.1494C40.9013 30.2041 40.8849 30.2627 40.8603 30.2744C40.8398 30.2861 40.8193 30.376 40.8193 30.4697C40.8193 30.5634 40.8398 30.6533 40.8603 30.665C40.8849 30.6767 40.9013 30.7353 40.9013 30.79C40.9013 30.8447 40.9341 30.9502 40.971 31.0283C41.0611 31.208 41.4792 31.622 41.5734 31.622C41.6103 31.622 41.639 31.6376 41.639 31.6611C41.639 31.6806 41.6759 31.7001 41.721 31.7001C41.7989 31.7001 42.1103 31.7861 42.2743 31.8564C42.3193 31.872 42.4423 31.9111 42.553 31.9384C42.6595 31.9696 42.7456 32.0009 42.7456 32.0165C42.7456 32.0321 42.8357 32.0556 42.9505 32.0712C43.0612 32.0868 43.1636 32.1142 43.18 32.1337C43.1923 32.1532 43.2456 32.1689 43.2989 32.1689C43.3521 32.1689 43.4054 32.1845 43.4177 32.204C43.43 32.2196 43.4997 32.2509 43.5735 32.2665C43.6472 32.2821 43.7169 32.3017 43.7292 32.3056C43.7415 32.3095 43.8071 32.3251 43.8726 32.3407C43.9423 32.3563 44.0284 32.3837 44.0653 32.4071C44.1062 32.4267 44.1677 32.4423 44.2005 32.4423C44.2333 32.4423 44.303 32.4618 44.3562 32.4892C44.5448 32.5829 44.5899 32.5985 44.6513 32.5985C44.7128 32.5985 45.0407 32.6962 45.1841 32.7548C45.2292 32.7743 45.3399 32.8095 45.43 32.8368C45.5202 32.8641 45.6145 32.8993 45.6349 32.9149C45.6595 32.9266 45.7456 32.954 45.8358 32.9657C45.9218 32.9813 46.0243 33.0087 46.0612 33.0282C46.0981 33.0438 46.3481 33.1258 46.6186 33.2079C46.8891 33.286 47.1391 33.3641 47.1718 33.3719C47.2046 33.3837 47.262 33.3993 47.2948 33.4032C47.3932 33.4227 47.7579 33.5399 47.8358 33.579C47.8768 33.5985 47.9423 33.6141 47.9833 33.6141C48.0243 33.6141 48.0735 33.6258 48.0899 33.6415C48.1596 33.7118 48.4505 33.7704 48.7169 33.7704C49.0735 33.7704 49.3604 33.661 49.6104 33.4305C49.9669 33.1024 49.9997 33.0282 49.9997 32.5009C49.9997 32.1181 49.9874 32.0321 49.9137 31.9071C49.7702 31.665 49.3768 31.3251 49.1923 31.2861C49.1268 31.2744 48.9997 31.2314 48.9055 31.1884C48.8071 31.1494 48.6923 31.1142 48.6473 31.1142C48.6022 31.1142 48.5284 31.0947 48.4833 31.0751C48.4382 31.0517 48.3686 31.0205 48.3276 31.0009C48.2866 30.9814 48.1718 30.9541 48.0735 30.9384C47.971 30.9228 47.8727 30.8994 47.8481 30.8837C47.8276 30.8681 47.6432 30.8056 47.4382 30.747C47.2374 30.6884 47.0366 30.622 46.9997 30.6025C46.9587 30.583 46.8972 30.5674 46.8645 30.5674C46.8317 30.5674 46.7702 30.5517 46.7292 30.5283C46.6186 30.4697 46.0325 30.2939 45.9423 30.2939C45.8972 30.2939 45.8604 30.2744 45.8604 30.2549C45.8604 30.2314 45.8153 30.2158 45.7579 30.2158C45.7005 30.2158 45.6186 30.1963 45.5735 30.1767C45.5284 30.1533 45.4546 30.1182 45.4095 30.0986C45.3645 30.0752 45.303 30.0596 45.2661 30.0596C45.2087 30.0596 44.6554 29.8955 44.4874 29.8291C44.4423 29.8096 44.2948 29.7627 44.1595 29.7275C43.7743 29.6182 43.3071 29.4697 43.2292 29.4307C43.1882 29.4111 43.1267 29.3955 43.0939 29.3955C43.0612 29.3955 42.9997 29.3799 42.9587 29.3604C42.7784 29.2744 42.5775 29.2315 42.2743 29.2158C42.0939 29.208 41.93 29.208 41.9054 29.2158Z" fill="white"/>
<path d="M7.00827 29.4227C6.72548 29.5165 6.46318 29.5946 6.4263 29.5946C6.38531 29.5946 6.34433 29.6102 6.33204 29.6336C6.31564 29.6532 6.27056 29.6688 6.22958 29.6688C6.15171 29.6688 5.83203 29.7586 5.67629 29.825C5.63121 29.8446 5.52055 29.8797 5.43039 29.9071C5.34022 29.9305 5.23776 29.9657 5.20498 29.9813C5.16809 29.9969 5.07793 30.0243 5.00006 30.036C4.86071 30.0633 4.73366 30.1063 4.58202 30.1805C4.54104 30.2 4.47956 30.2157 4.44678 30.2157C4.41399 30.2157 4.35251 30.2313 4.31153 30.2508C4.27464 30.2742 4.1312 30.3172 3.99595 30.3524C3.75005 30.4188 3.6107 30.4656 3.47546 30.532C3.43447 30.5516 3.3648 30.5672 3.32382 30.5672C3.27873 30.5672 3.22955 30.5828 3.21726 30.6063C3.20496 30.6258 3.15578 30.6453 3.1148 30.6453C3.03693 30.6453 2.47955 30.8094 2.31561 30.8797C2.27053 30.8992 2.16807 30.9266 2.0902 30.9422C2.01233 30.9539 1.93036 30.9773 1.90577 30.993C1.8402 31.032 1.582 31.1141 1.52462 31.1141C1.49593 31.1141 1.39757 31.1492 1.30331 31.1922C1.20905 31.2351 1.0697 31.282 0.987734 31.2937C0.811503 31.325 0.606584 31.4422 0.409861 31.6258C0.25822 31.7664 0.204941 31.8484 0.0328089 32.1765C-0.0122734 32.2703 -0.00817505 32.7781 0.0369072 32.864C0.0573992 32.8991 0.102481 32.989 0.13117 33.0554C0.159859 33.1257 0.196744 33.1843 0.213138 33.1843C0.23363 33.1843 0.245925 33.2077 0.245925 33.239C0.245925 33.3093 0.516419 33.5397 0.762322 33.6765C0.938553 33.7741 1.00003 33.7897 1.31151 33.7897C1.62298 33.7897 1.87299 33.7468 2.11069 33.6491C2.15578 33.6335 2.32381 33.5788 2.47955 33.5319C2.63939 33.4851 2.78693 33.4343 2.80742 33.4187C2.83201 33.403 2.91398 33.3757 2.99185 33.3601C3.06972 33.3444 3.40988 33.2468 3.74595 33.1413C4.08202 33.0359 4.3771 32.9499 4.40169 32.9499C4.43038 32.9499 4.52874 32.9148 4.62301 32.8718C4.71317 32.8288 4.82793 32.7937 4.87711 32.7937C4.92219 32.7937 4.99186 32.7781 5.03285 32.7546C5.12711 32.7038 5.47957 32.5984 5.55334 32.5984C5.59023 32.5984 5.6517 32.5788 5.69678 32.5593C5.74187 32.5359 5.81564 32.5007 5.86072 32.4812C5.9058 32.4578 5.97138 32.4421 6.00416 32.4421C6.03695 32.4421 6.09843 32.4265 6.13941 32.4031C6.1763 32.3835 6.37712 32.321 6.57794 32.2624C6.78286 32.2039 6.96729 32.1414 6.98778 32.1257C7.01237 32.1101 7.11073 32.0867 7.21319 32.0711C7.39352 32.0437 7.4304 32.0281 7.61073 31.9421C7.66401 31.9148 7.74188 31.8953 7.78287 31.8953C7.82795 31.8953 7.87713 31.8757 7.88942 31.8562C7.90172 31.8328 7.9591 31.8172 8.01238 31.8172C8.06565 31.8172 8.12303 31.7976 8.13533 31.7781C8.14762 31.7547 8.1968 31.739 8.24598 31.739C8.39353 31.739 8.61074 31.614 8.83615 31.3992C8.9591 31.282 9.05747 31.1687 9.05747 31.1492C9.05747 31.1258 9.09845 31.0281 9.14763 30.9266C9.28698 30.6375 9.27058 30.3406 9.09025 29.9774C8.98779 29.7665 8.89763 29.6454 8.78697 29.5672C8.70091 29.5047 8.59845 29.4305 8.56156 29.3993C8.43041 29.2938 8.17631 29.2391 7.84844 29.243C7.56975 29.2469 7.4427 29.2743 7.00827 29.4227Z" fill="white"/>
<path d="M35.4912 37.7896C35.4584 37.8092 35.3478 37.8326 35.2453 37.8482C35.106 37.8677 35.0035 37.9224 34.815 38.0709C34.6798 38.1802 34.5527 38.3091 34.5281 38.356C34.5076 38.399 34.4789 38.4458 34.4666 38.4576C34.4093 38.5123 34.3437 38.6607 34.3437 38.7466C34.3437 38.8013 34.3273 38.856 34.3027 38.8677C34.2822 38.8794 34.2617 38.9771 34.2617 39.0825C34.2617 39.188 34.2822 39.2857 34.3027 39.2974C34.3273 39.3091 34.3437 39.3638 34.3437 39.4146C34.3437 39.4653 34.3642 39.52 34.3847 39.5317C34.4093 39.5435 34.4257 39.5903 34.4257 39.6333C34.4257 39.6724 34.4461 39.7075 34.4666 39.7075C34.4912 39.7075 34.5076 39.727 34.5076 39.7505C34.5076 39.7778 34.5691 39.8677 34.6429 39.9575C34.7166 40.0473 34.8109 40.1684 34.8519 40.227C34.8888 40.2895 34.9502 40.3676 34.9789 40.4028C35.0117 40.438 35.1388 40.602 35.2617 40.7622C35.3847 40.9223 35.5035 41.0707 35.5199 41.0942C35.5404 41.1137 35.6019 41.1957 35.6552 41.27C35.7085 41.3442 35.7781 41.4301 35.8068 41.4574C35.8355 41.4848 35.8601 41.5278 35.8601 41.5473C35.8601 41.5668 35.8929 41.6176 35.9339 41.6645C35.9707 41.7074 36.0445 41.7934 36.0937 41.8481C36.147 41.9067 36.188 41.9652 36.188 41.9809C36.188 41.9965 36.2126 42.0316 36.2412 42.059C36.2699 42.0863 36.3847 42.2309 36.4953 42.3832C36.606 42.5316 36.7085 42.6644 36.7208 42.6762C36.7371 42.6879 36.8847 42.8793 37.0486 43.1058C37.2167 43.3324 37.3765 43.5394 37.4011 43.5628C37.4298 43.5902 37.4913 43.6761 37.5445 43.7581C37.5978 43.8402 37.6511 43.9144 37.6634 43.9261C37.688 43.9417 38.2699 44.7034 38.4749 44.9808C38.6019 45.1526 38.9093 45.4339 39.0773 45.5276C39.2208 45.6096 39.2945 45.6214 39.6716 45.6214C40.1019 45.6253 40.1019 45.6253 40.3273 45.4807C40.4503 45.4026 40.6019 45.2893 40.6634 45.2268C40.8068 45.0823 40.9831 44.7659 40.9831 44.6487C40.9831 44.598 41.0036 44.5433 41.0241 44.5315C41.0487 44.5198 41.065 44.4378 41.065 44.3558C41.065 44.2737 41.0487 44.1917 41.0241 44.18C41.0036 44.1683 40.9831 44.1136 40.9831 44.0628C40.9831 43.93 40.7987 43.6175 40.5323 43.3011C40.4503 43.2035 40.3478 43.0746 40.3068 43.0121C40.2618 42.9496 40.188 42.8519 40.1429 42.7933C40.0978 42.7347 39.9872 42.5824 39.897 42.4574C39.8068 42.3324 39.7003 42.1996 39.6634 42.1645C39.6224 42.1293 39.5896 42.0863 39.5896 42.0746C39.5896 42.059 39.565 42.0199 39.5404 41.9926C39.4175 41.8637 39.3847 41.8168 39.3847 41.7817C39.3847 41.7621 39.3683 41.7387 39.3519 41.7309C39.3355 41.7231 39.229 41.5942 39.1183 41.4457C38.8929 41.1411 38.8929 41.1411 38.7577 40.977C38.7044 40.9106 38.524 40.6762 38.3601 40.4497C38.1921 40.2231 38.0445 40.0317 38.024 40.0278C38.0076 40.02 37.9913 39.9888 37.9913 39.9575C37.9913 39.9263 37.979 39.9028 37.9626 39.9028C37.9421 39.9028 37.8765 39.8247 37.8068 39.727C37.7413 39.6333 37.6716 39.5513 37.6552 39.5513C37.6347 39.5513 37.6224 39.5317 37.6224 39.5122C37.6224 39.4771 37.1101 38.7857 36.9544 38.6138C36.9257 38.5826 36.8519 38.481 36.7863 38.3912C36.5814 38.0982 36.1798 37.8326 35.9462 37.8326C35.8806 37.8326 35.8109 37.8131 35.7986 37.7935C35.7699 37.7467 35.5773 37.7427 35.4912 37.7896Z" fill="white"/>
<path d="M13.882 37.9261C13.5295 38.1019 13.4188 38.2113 12.8819 38.9652C12.7959 39.0823 12.6934 39.2073 12.6565 39.2425C12.6156 39.2777 12.5828 39.3206 12.5828 39.3362C12.5828 39.3519 12.5377 39.4183 12.4803 39.4886C12.3492 39.6409 12.3492 39.6448 12.1565 39.9026C12.0664 40.0198 11.9803 40.1214 11.9598 40.1292C11.9434 40.137 11.927 40.1682 11.927 40.1995C11.927 40.2307 11.9106 40.2542 11.8901 40.2542C11.8696 40.2542 11.841 40.2854 11.8287 40.3245C11.8123 40.3635 11.7713 40.43 11.7303 40.4729C11.6893 40.512 11.5213 40.7307 11.3573 40.9573C11.1893 41.1838 11.0377 41.3713 11.0213 41.3791C11.0008 41.3869 10.9844 41.4182 10.9844 41.4494C10.9844 41.4807 10.968 41.5041 10.9516 41.5041C10.9352 41.5041 10.886 41.5627 10.8409 41.6291C10.8 41.6994 10.7426 41.7776 10.7221 41.801C10.6975 41.8244 10.6401 41.8908 10.595 41.9533C10.3614 42.2658 10.1975 42.4807 10.0745 42.6369C10.0008 42.7345 9.92701 42.8283 9.91061 42.8517C9.89422 42.8713 9.83684 42.9416 9.78356 43.008C9.57454 43.2658 9.23028 43.7579 9.15651 43.9064C9.07044 44.0861 9.04995 44.7149 9.13192 44.7931C9.16061 44.8204 9.1811 44.8673 9.1811 44.9024C9.1811 44.9415 9.22208 45.0118 9.26717 45.0626C9.31635 45.1134 9.38192 45.1954 9.41471 45.2423C9.44749 45.2891 9.57864 45.3946 9.70569 45.4766L9.9393 45.6251H10.4106H10.8819L11.1196 45.4727C11.3287 45.3399 11.5131 45.1368 11.9065 44.6095C11.9393 44.5665 12.0541 44.4181 12.1606 44.2775C12.2713 44.1368 12.4106 43.9415 12.4803 43.8478C12.5459 43.7501 12.6319 43.6447 12.6647 43.6134C12.7016 43.5822 12.7836 43.4728 12.8492 43.3712C12.9188 43.2658 12.9844 43.1838 13.0049 43.1838C13.0213 43.1838 13.0336 43.1603 13.0336 43.1291C13.0336 43.0978 13.05 43.0666 13.0664 43.0588C13.0828 43.0509 13.218 42.8869 13.3615 42.6955C13.5049 42.5002 13.6483 42.3205 13.677 42.2932C13.7057 42.2619 13.7508 42.2033 13.7795 42.1564C13.8369 42.0471 14.0705 41.7619 14.1115 41.7463C14.1279 41.7385 14.1402 41.7151 14.1402 41.6955C14.1402 41.6487 14.427 41.2698 14.4598 41.2698C14.4762 41.2698 14.5418 41.1799 14.6115 41.0745C14.677 40.9651 14.7467 40.8792 14.7631 40.8792C14.7795 40.8792 14.7959 40.8596 14.7959 40.8362C14.7959 40.8088 14.8574 40.719 14.9311 40.6292C15.0049 40.5393 15.1279 40.387 15.1975 40.2854C15.2713 40.1878 15.3533 40.0823 15.3779 40.0511C15.4066 40.0237 15.5049 39.8948 15.5951 39.7659L15.759 39.5315V39.0902C15.759 38.8402 15.7426 38.6371 15.718 38.6214C15.6934 38.6058 15.6484 38.5433 15.6156 38.4769C15.5213 38.2972 15.3779 38.1566 15.1279 37.9965C14.9066 37.8597 14.882 37.8519 14.4885 37.8402C14.1156 37.8285 14.0623 37.8363 13.882 37.9261Z" fill="white"/>
<path d="M24.755 41.1136C24.755 41.1332 24.71 41.1527 24.6526 41.1527C24.5378 41.1527 24.1608 41.3714 24.0378 41.5121C23.9231 41.6449 23.7714 41.9261 23.7714 42.012C23.7714 42.0511 23.755 42.098 23.7304 42.1097C23.7017 42.1253 23.6895 43.3479 23.6895 45.6486C23.6895 47.9649 23.7017 49.1602 23.7304 49.1602C23.755 49.1602 23.7714 49.1915 23.7714 49.2344C23.7714 49.4844 24.1608 49.9297 24.5296 50.0938C24.7509 50.1914 25.2796 50.207 25.4968 50.1211C25.7919 50.0039 26.0993 49.75 26.1977 49.5391C26.2264 49.4805 26.2632 49.4336 26.2796 49.4336C26.3001 49.4336 26.3124 49.3907 26.3124 49.3399C26.3124 49.2852 26.3329 49.2305 26.3534 49.2188C26.3821 49.2032 26.3944 47.961 26.3944 45.6252C26.3944 43.2893 26.3821 42.0472 26.3534 42.0316C26.3329 42.0199 26.3124 41.973 26.3124 41.93C26.3124 41.891 26.296 41.8558 26.2714 41.8558C26.2509 41.8558 26.2305 41.8206 26.2305 41.7777C26.2305 41.6058 25.6567 41.1527 25.4354 41.1527C25.378 41.1527 25.3206 41.1332 25.3083 41.1136C25.296 41.0902 25.1649 41.0746 25.0173 41.0746C24.8698 41.0746 24.755 41.0902 24.755 41.1136Z" fill="white"/>
</svg>
