<svg width="65" height="64" viewBox="0 0 65 64" fill="none" xmlns="http://www.w3.org/2000/svg">
<g clip-path="url(#clip0_54_7)">
<path d="M27.677 40.1562H33.2004V62.895C33.2004 63.344 33.5641 63.7077 34.0131 63.7077H43.3782C43.8271 63.7077 44.1909 63.344 44.1909 62.895V40.2633H50.5405C50.9533 40.2633 51.3007 39.9535 51.3478 39.5434L52.3122 31.1721C52.3387 30.9418 52.2657 30.7111 52.1116 30.5384C51.9574 30.3654 51.7366 30.2664 51.505 30.2664H44.1912V25.0189C44.1912 23.437 45.0429 22.6349 46.723 22.6349C46.9624 22.6349 51.505 22.6349 51.505 22.6349C51.9539 22.6349 52.3177 22.2709 52.3177 21.8221V14.1381C52.3177 13.6891 51.9539 13.3254 51.505 13.3254H44.9147C44.8682 13.3231 44.765 13.3193 44.6128 13.3193C43.4694 13.3193 39.4947 13.5438 36.355 16.4322C32.8762 19.633 33.3598 23.4654 33.4754 24.1299V30.2663H27.677C27.228 30.2663 26.8643 30.63 26.8643 31.079V39.3433C26.8643 39.7923 27.228 40.1562 27.677 40.1562Z" fill="white"/>
</g>
<rect x="3" y="3.72217" width="58.7851" height="56.9855" rx="12" stroke="white" stroke-width="6"/>
<defs>
<clipPath id="clip0_54_7">
<rect width="50.3884" height="50.3884" fill="white" transform="translate(14.3965 13.3193)"/>
</clipPath>
</defs>
</svg>
