<svg width="67" height="67" viewBox="0 0 67 67" fill="none" xmlns="http://www.w3.org/2000/svg">
<path d="M20.0479 0.84375C9.50647 0.84375 0.84375 9.49487 0.84375 20.0479V46.9521C0.84375 57.4935 9.49487 66.1562 20.0479 66.1562H46.9521C57.4935 66.1562 66.1562 57.5051 66.1562 46.9521V20.0479C66.1562 9.50647 57.5051 0.84375 46.9521 0.84375H20.0479ZM20.0479 6.78125H46.9521C54.2928 6.78125 60.2188 12.7072 60.2188 20.0479V46.9521C60.2188 54.2928 54.2928 60.2188 46.9521 60.2188H20.0479C12.7072 60.2188 6.78125 54.2928 6.78125 46.9521V20.0479C6.78125 12.7072 12.7072 6.78125 20.0479 6.78125ZM51.0342 13.2754C49.5382 13.2754 48.3438 14.4698 48.3438 15.9658C48.3438 17.4618 49.5382 18.6562 51.0342 18.6562C52.5302 18.6562 53.7246 17.4618 53.7246 15.9658C53.7246 14.4698 52.5302 13.2754 51.0342 13.2754ZM33.5 15.6875C23.7008 15.6875 15.6875 23.7008 15.6875 33.5C15.6875 43.2992 23.7008 51.3125 33.5 51.3125C43.2992 51.3125 51.3125 43.2992 51.3125 33.5C51.3125 23.7008 43.2992 15.6875 33.5 15.6875ZM33.5 21.625C40.0985 21.625 45.375 26.9015 45.375 33.5C45.375 40.0985 40.0985 45.375 33.5 45.375C26.9015 45.375 21.625 40.0985 21.625 33.5C21.625 26.9015 26.9015 21.625 33.5 21.625Z" fill="white"/>
</svg>
