<svg width="97" height="96" viewBox="0 0 97 96" fill="none" xmlns="http://www.w3.org/2000/svg">
<path d="M45 57C45.4 55.8 45.1667 54.5 45 54" stroke="#4F5454" stroke-width="0.83"/>
<path d="M44.6061 54.5455C44.1277 37.8871 41.2574 25.6383 8.72729 8C9.49271 25.6383 11.1192 52.0957 44.6061 54.5455Z" fill="#3BFF1C" stroke="#4F5454" stroke-width="2.5"/>
<path d="M2 34.2424C23.7241 35.1875 39.1724 38.4951 44 54.5606C19.8621 61.1758 7.31035 47.0003 2 34.2424Z" fill="white" stroke="#4F5454" stroke-width="2.5"/>
<path d="M44.4622 55.6609L44.4562 55.5151C31.4976 59.519 26.8326 65.1712 26.2183 66.0254C24.553 68.3408 22.7627 74.5337 26.2183 86.5454C45.335 76.5779 44.9398 67.1067 44.4622 55.6609Z" fill="white" stroke="#4F5454" stroke-width="2.5"/>
<path d="M35.8312 64.8567C32.9481 66.3579 23.8182 68.8599 7 58.3516C15.6494 52.8472 30.5455 42.3388 44 55.8496C43.039 59.3523 38.1377 63.6558 35.8312 64.8567Z" fill="#9D19B3" stroke="#4F5454" stroke-width="2.5"/>
<path d="M51.2209 57C50.8209 55.8 51.0543 54.5 51.2209 54" stroke="#4F5454" stroke-width="0.83"/>
<path d="M51.6147 54.5455C52.0931 37.8871 54.9634 25.6383 87.4935 8C86.7281 25.6383 85.1016 52.0957 51.6147 54.5455Z" fill="#3BFF1C" stroke="#4F5454" stroke-width="2.5"/>
<path d="M94.2208 34.2424C72.4967 35.1875 57.0484 38.4951 52.2208 54.5606C76.3588 61.1758 88.9105 47.0003 94.2208 34.2424Z" fill="white" stroke="#4F5454" stroke-width="2.5"/>
<path d="M51.7586 55.6609L51.7647 55.5151C64.7232 59.519 69.3882 65.1712 70.0026 66.0254C71.6678 68.3408 73.4582 74.5337 70.0026 86.5454C50.8858 76.5779 51.281 67.1067 51.7586 55.6609Z" fill="white" stroke="#4F5454" stroke-width="2.5"/>
<path d="M60.3897 64.8567C63.2728 66.3579 72.4026 68.8599 89.2208 58.3516C80.5715 52.8472 65.6754 42.3388 52.2208 55.8496C53.1819 59.3523 58.0832 63.6558 60.3897 64.8567Z" fill="#9D19B3" stroke="#4F5454" stroke-width="2.5"/>
</svg>
