<svg width="50" height="50" viewBox="0 0 50 50" fill="none" xmlns="http://www.w3.org/2000/svg">
<path d="M28.3105 45.1229C20.2417 47.2854 10.5667 43.9875 5.43545 37.5563C5.19436 37.2539 5.04217 36.8905 4.99591 36.5065C4.94966 36.1226 5.01117 35.7334 5.17356 35.3825C5.33595 35.0315 5.59281 34.7327 5.91539 34.5195C6.23796 34.3062 6.61353 34.1869 7.00004 34.175C15.3 33.9292 20.8792 31.0813 24.0209 25.6375C27.1667 20.1938 26.8417 13.9375 22.9063 6.62709C22.7227 6.28635 22.6377 5.9012 22.6608 5.51485C22.6839 5.1285 22.8141 4.75621 23.0369 4.43974C23.2597 4.12326 23.5663 3.87511 23.9222 3.72311C24.2782 3.57111 24.6694 3.52127 25.0521 3.57917C33.1855 4.80834 40.8792 11.5375 43.0417 19.6083C46.0209 30.7208 39.423 42.1458 28.3105 45.1229Z" fill="white"/>
</svg>
